<?xml version="1.0" encoding="UTF-8"?>
<svg xmlns="http://www.w3.org/2000/svg" width="900" height="460" viewBox="0 0 900 460" role="img" aria-label="Search Latency — ARM (Apple M3 Max) — Multi-threaded">
  <style>
  .title { font: 700 20px -apple-system, BlinkMacSystemFont, "Segoe UI", sans-serif; fill: #0f172a; }
  .subtitle { font: 400 12px -apple-system, BlinkMacSystemFont, "Segoe UI", sans-serif; fill: #475569; }
  .panel { font: 700 14px -apple-system, BlinkMacSystemFont, "Segoe UI", sans-serif; fill: #0f172a; }
  .label { font: 600 12px -apple-system, BlinkMacSystemFont, "Segoe UI", sans-serif; fill: #0f172a; }
  .secondary { font: 400 11px -apple-system, BlinkMacSystemFont, "Segoe UI", sans-serif; fill: #475569; }
  .tick { font: 400 11px -apple-system, BlinkMacSystemFont, "Segoe UI", sans-serif; fill: #64748b; }
  .value { font: 700 11px -apple-system, BlinkMacSystemFont, "Segoe UI", sans-serif; fill: #0f172a; }
  .value-accent { font: 700 11px -apple-system, BlinkMacSystemFont, "Segoe UI", sans-serif; fill: #4338ca; }
  .axis { font: 600 12px -apple-system, BlinkMacSystemFont, "Segoe UI", sans-serif; fill: #334155; }
  .legend { font: 600 12px -apple-system, BlinkMacSystemFont, "Segoe UI", sans-serif; fill: #0f172a; }
</style>
  <rect width="100%" height="100%" fill="#ffffff" />
  <text x="84" y="32" class="title">Search Latency — ARM (Apple M3 Max) — Multi-threaded</text>
  <text x="84" y="52" class="subtitle">100K vectors, 1K queries, k=64, median of 5 runs</text>
  <line x1="84" y1="352.0" x2="868" y2="352.0" stroke="#e5e7eb" stroke-width="1" />
<text x="74" y="356.0" text-anchor="end" class="tick">0.00</text>
<line x1="84" y1="298.0" x2="868" y2="298.0" stroke="#e5e7eb" stroke-width="1" />
<text x="74" y="302.0" text-anchor="end" class="tick">0.20</text>
<line x1="84" y1="244.0" x2="868" y2="244.0" stroke="#e5e7eb" stroke-width="1" />
<text x="74" y="248.0" text-anchor="end" class="tick">0.40</text>
<line x1="84" y1="190.0" x2="868" y2="190.0" stroke="#e5e7eb" stroke-width="1" />
<text x="74" y="194.0" text-anchor="end" class="tick">0.60</text>
<line x1="84" y1="136.0" x2="868" y2="136.0" stroke="#e5e7eb" stroke-width="1" />
<text x="74" y="140.0" text-anchor="end" class="tick">0.80</text>
<line x1="84" y1="82.0" x2="868" y2="82.0" stroke="#e5e7eb" stroke-width="1" />
<text x="74" y="86.0" text-anchor="end" class="tick">1.00</text>
<line x1="84" y1="352.0" x2="868" y2="352.0" stroke="#94a3b8" stroke-width="1.5" />
<text x="84" y="68" class="panel">Multi-threaded</text>
<rect x="135.0" y="324.2" width="44" height="27.8" rx="6" fill="#635bff" stroke="#4338ca" stroke-width="1.5" />
<rect x="185.0" y="320.9" width="44" height="31.1" rx="6" fill="#9aa7b6" />
<text x="157.0" y="318.2" text-anchor="middle" class="value-accent">0.103</text>
<text x="207.0" y="314.9" text-anchor="middle" class="value">0.115</text>
<text x="182.0" y="374" text-anchor="middle" class="label">d=1536</text>
<text x="182.0" y="389" text-anchor="middle" class="secondary">2-bit</text>
<rect x="331.0" y="302.1" width="44" height="50.0" rx="6" fill="#635bff" stroke="#4338ca" stroke-width="1.5" />
<rect x="381.0" y="292.6" width="44" height="59.4" rx="6" fill="#9aa7b6" />
<text x="353.0" y="296.1" text-anchor="middle" class="value-accent">0.185</text>
<text x="403.0" y="286.6" text-anchor="middle" class="value">0.220</text>
<text x="378.0" y="374" text-anchor="middle" class="label">d=1536</text>
<text x="378.0" y="389" text-anchor="middle" class="secondary">4-bit</text>
<rect x="527.0" y="297.7" width="44" height="54.3" rx="6" fill="#635bff" stroke="#4338ca" stroke-width="1.5" />
<rect x="577.0" y="291.5" width="44" height="60.5" rx="6" fill="#9aa7b6" />
<text x="549.0" y="291.7" text-anchor="middle" class="value-accent">0.201</text>
<text x="599.0" y="285.5" text-anchor="middle" class="value">0.224</text>
<text x="574.0" y="374" text-anchor="middle" class="label">d=3072</text>
<text x="574.0" y="389" text-anchor="middle" class="secondary">2-bit</text>
<rect x="723.0" y="250.8" width="44" height="101.2" rx="6" fill="#635bff" stroke="#4338ca" stroke-width="1.5" />
<rect x="773.0" y="231.0" width="44" height="121.0" rx="6" fill="#9aa7b6" />
<text x="745.0" y="244.8" text-anchor="middle" class="value-accent">0.375</text>
<text x="795.0" y="225.0" text-anchor="middle" class="value">0.448</text>
<text x="770.0" y="374" text-anchor="middle" class="label">d=3072</text>
<text x="770.0" y="389" text-anchor="middle" class="secondary">4-bit</text>
<text x="26" y="217.0" transform="rotate(-90, 26, 217.0)" class="axis">ms / query</text>
<rect x="84" y="424" width="14" height="14" rx="3" fill="#635bff" stroke="#4338ca" stroke-width="1.5" />
<text x="106" y="435" class="legend" style="fill: #4338ca;">TurboQuant</text>
<rect x="224" y="424" width="14" height="14" rx="3" fill="#9aa7b6" />
<text x="246" y="435" class="legend">FAISS</text>
</svg>
