<?xml version="1.0" encoding="UTF-8"?>
<svg xmlns="http://www.w3.org/2000/svg" width="900" height="460" viewBox="0 0 900 460" role="img" aria-label="Search Latency — x86 (Intel Sapphire Rapids, 8 vCPUs) — Multi-threaded">
  <style>
  .title { font: 700 20px -apple-system, BlinkMacSystemFont, "Segoe UI", sans-serif; fill: #0f172a; }
  .subtitle { font: 400 12px -apple-system, BlinkMacSystemFont, "Segoe UI", sans-serif; fill: #475569; }
  .panel { font: 700 14px -apple-system, BlinkMacSystemFont, "Segoe UI", sans-serif; fill: #0f172a; }
  .label { font: 600 12px -apple-system, BlinkMacSystemFont, "Segoe UI", sans-serif; fill: #0f172a; }
  .secondary { font: 400 11px -apple-system, BlinkMacSystemFont, "Segoe UI", sans-serif; fill: #475569; }
  .tick { font: 400 11px -apple-system, BlinkMacSystemFont, "Segoe UI", sans-serif; fill: #64748b; }
  .value { font: 700 11px -apple-system, BlinkMacSystemFont, "Segoe UI", sans-serif; fill: #0f172a; }
  .value-accent { font: 700 11px -apple-system, BlinkMacSystemFont, "Segoe UI", sans-serif; fill: #4338ca; }
  .axis { font: 600 12px -apple-system, BlinkMacSystemFont, "Segoe UI", sans-serif; fill: #334155; }
  .legend { font: 600 12px -apple-system, BlinkMacSystemFont, "Segoe UI", sans-serif; fill: #0f172a; }
</style>
  <rect width="100%" height="100%" fill="#ffffff" />
  <text x="84" y="32" class="title">Search Latency — x86 (Intel Sapphire Rapids, 8 vCPUs) — Multi-threaded</text>
  <text x="84" y="52" class="subtitle">100K vectors, 1K queries, k=64, median of 5 runs</text>
  <line x1="84" y1="352.0" x2="868" y2="352.0" stroke="#e5e7eb" stroke-width="1" />
<text x="74" y="356.0" text-anchor="end" class="tick">0.00</text>
<line x1="84" y1="298.0" x2="868" y2="298.0" stroke="#e5e7eb" stroke-width="1" />
<text x="74" y="302.0" text-anchor="end" class="tick">0.30</text>
<line x1="84" y1="244.0" x2="868" y2="244.0" stroke="#e5e7eb" stroke-width="1" />
<text x="74" y="248.0" text-anchor="end" class="tick">0.60</text>
<line x1="84" y1="190.0" x2="868" y2="190.0" stroke="#e5e7eb" stroke-width="1" />
<text x="74" y="194.0" text-anchor="end" class="tick">0.90</text>
<line x1="84" y1="136.0" x2="868" y2="136.0" stroke="#e5e7eb" stroke-width="1" />
<text x="74" y="140.0" text-anchor="end" class="tick">1.20</text>
<line x1="84" y1="82.0" x2="868" y2="82.0" stroke="#e5e7eb" stroke-width="1" />
<text x="74" y="86.0" text-anchor="end" class="tick">1.50</text>
<line x1="84" y1="352.0" x2="868" y2="352.0" stroke="#94a3b8" stroke-width="1.5" />
<text x="84" y="68" class="panel">Multi-threaded</text>
<rect x="135.0" y="297.3" width="44" height="54.7" rx="6" fill="#635bff" stroke="#4338ca" stroke-width="1.5" />
<rect x="185.0" y="298.9" width="44" height="53.1" rx="6" fill="#9aa7b6" />
<text x="157.0" y="291.3" text-anchor="middle" class="value-accent">0.304</text>
<text x="207.0" y="292.9" text-anchor="middle" class="value">0.295</text>
<text x="182.0" y="374" text-anchor="middle" class="label">d=1536</text>
<text x="182.0" y="389" text-anchor="middle" class="secondary">2-bit</text>
<rect x="331.0" y="248.3" width="44" height="103.7" rx="6" fill="#635bff" stroke="#4338ca" stroke-width="1.5" />
<rect x="381.0" y="245.8" width="44" height="106.2" rx="6" fill="#9aa7b6" />
<text x="353.0" y="242.3" text-anchor="middle" class="value-accent">0.576</text>
<text x="403.0" y="239.8" text-anchor="middle" class="value">0.590</text>
<text x="378.0" y="374" text-anchor="middle" class="label">d=1536</text>
<text x="378.0" y="389" text-anchor="middle" class="secondary">4-bit</text>
<rect x="527.0" y="239.3" width="44" height="112.7" rx="6" fill="#635bff" stroke="#4338ca" stroke-width="1.5" />
<rect x="577.0" y="245.8" width="44" height="106.2" rx="6" fill="#9aa7b6" />
<text x="549.0" y="233.3" text-anchor="middle" class="value-accent">0.626</text>
<text x="599.0" y="239.8" text-anchor="middle" class="value">0.590</text>
<text x="574.0" y="374" text-anchor="middle" class="label">d=3072</text>
<text x="574.0" y="389" text-anchor="middle" class="secondary">2-bit</text>
<rect x="723.0" y="140.1" width="44" height="211.9" rx="6" fill="#635bff" stroke="#4338ca" stroke-width="1.5" />
<rect x="773.0" y="140.1" width="44" height="211.9" rx="6" fill="#9aa7b6" />
<text x="745.0" y="134.1" text-anchor="middle" class="value-accent">1.177</text>
<text x="795.0" y="134.1" text-anchor="middle" class="value">1.177</text>
<text x="770.0" y="374" text-anchor="middle" class="label">d=3072</text>
<text x="770.0" y="389" text-anchor="middle" class="secondary">4-bit</text>
<text x="26" y="217.0" transform="rotate(-90, 26, 217.0)" class="axis">ms / query</text>
<rect x="84" y="424" width="14" height="14" rx="3" fill="#635bff" stroke="#4338ca" stroke-width="1.5" />
<text x="106" y="435" class="legend" style="fill: #4338ca;">TurboQuant</text>
<rect x="224" y="424" width="14" height="14" rx="3" fill="#9aa7b6" />
<text x="246" y="435" class="legend">FAISS</text>
</svg>
